<svg xmlns="http://www.w3.org/2000/svg" viewBox="0 0 512.006 512.006">
    <circle cx="256.003" cy="256.003" r="256.003" fill="#6b7f9e"/>
    <g fill="#5fdc68">
        <path d="M100.785 190.283l95.886-26.121 26.115 95.886-22.173-12.679-42.766 74.076h65.817l-43.414 43.771 50.862 50.444h-85.793c-30.614 0-56.892-15.174-72.199-41.682-15.307-26.515-15.307-56.856 0-83.371l50.413-87.318-22.748-13.006z"/>
        <path d="M276.396 435.036l-70.564-69.983 69.983-70.558.109 26.951h78.242l-33.708-58.382 63.97 16.857 15.131-57.431 39.321 68.112c15.307 26.515 15.307 56.856 0 83.371-15.307 26.509-41.585 41.682-72.199 41.682h-90.37l.079 19.376.006.005z"/>
        <path d="M328.208 98.908l42.881 74.27 23.493-13.696-25.322 96.098-96.098-25.322 21.217-12.37-38.37-66.453-28.059 48.597-15.949-58.539-62.632 17.063 34.441-59.647c15.307-26.515 41.585-41.682 72.199-41.682s56.898 15.172 72.199 41.681z"/>
    </g>
    <g fill="#56bf5d">
        <path d="M212.002 141.492l15.949 58.539 28.059-48.597c-47.41-85.889-105.053 4.384-105.053 4.384l-1.58 2.737 62.632-17.063h-.007zM384.422 279.926l-63.97-16.857 33.708 58.382c65.169 5.231 73.937-49.517 45.4-98.956l-15.138 57.431zM180.256 365.216l43.414-43.771h-65.817c-32.43 56.777 8.846 94.215 73.265 94.215l-50.862-50.444z"/>
    </g>
</svg>
