<svg version="1.1" id="Layer1" xmlns="http://www.w3.org/2000/svg" viewBox="0 0 511.844 511.844" style="enable-background: new 0 0 511.844 511.844">
    <rect x="0" y="0" rx="20%" ry="20%" width="100%" height="100%" style="fill:rgb(50,50,50);" />
    <polygon style="fill: #8cc153" points="193.2,10.5 106.6,160.4 199,213.7 245.7,132.8 316.3,10.5"/>
    <polygon style="fill: #a0d468" points="316.3,10.5 193.2,10.5 283.3,166.6 246.6,187.8 309.4,200.7 372.2,213.7 392.4,152.8 412.6,91.9 375.6,113.3"/>
    <polygon style="fill: #8cc153" points="61.6,458.4 234.6,458.4 234.6,351.7 141.2,351.7 0,351.7"/>
    <polygon style="fill: #a0d468" points="0,351.7 61.6,458.4 151.7,302.3 188.4,323.5 168.2,262.6 148,201.7 85.2,214.7 22.4,227.7 59.3,249"/>
    <polygon style="enable-background: new    ; opacity: 0.1" points="165.8,351.7 61.6,455 61.6,458.4 123.1,351.7"/>
    <polygon style="fill: #8cc153" points="511.8,352 425.3,202.2 333,255.5 379.7,336.4 450.3,458.6"/>
    <polygon style="fill: #a0d468" points="450.3,458.7 511.8,352.1 331.6,352.1 331.6,309.7 289,357.6 246.3,405.5 289,453.4 331.6,501.3 331.6,458.7"/>
    <polygon style="enable-background: new    ; opacity: 0.1" points="367.4,315.1 508.9,353.7 511.8,352 388.7,352"/>
    <polygon style="enable-background: new    ; opacity: 0.1" points="233.4,154.1 196,12.2 193.2,10.5 254.7,117.1"/>
</svg>
