<svg xmlns="http://www.w3.org/2000/svg" width="16" height="16">
    <path fill="#6b7f9e" d="M15 11.8h-1V4.6a2 2.4 0 0 0-2-2.4H4a2 2.4 0 0 0-2 2.4v7.2H1a9 1.2 0 0 0 0 2.4h14a9 1.2 0 1 0 0-2.4z"/>
    <g fill="#5fdc68">
        <path d="M4.976 6.73l1.88-.512.51 1.88-.434-.249-.84 1.452h1.29l-.85.859.998.988H5.848c-.6 0-1.115-.298-1.415-.818-.3-.519-.3-1.115 0-1.634l.988-1.711-.445-.255z"/>
        <path d="M8.417 11.526l-1.383-1.372L8.406 8.77l.002.53H9.94l-.66-1.145 1.254.331.296-1.125.77 1.335c.3.52.3 1.115 0 1.634-.3.52-.815.818-1.415.818H8.414l.001.38z"/>
        <path d="M9.433 4.938l.84 1.457.461-.269-.496 1.884-1.883-.496.415-.243-.752-1.304-.551.953-.312-1.147-1.227.336.674-1.169c.3-.519.816-.817 1.416-.817s1.115.298 1.415.817z"/>
    </g>
    <path d="M7.155 5.773l.312 1.147.55-.953c-.928-1.683-2.06.087-2.06.087l-.03.053 1.226-.336zm3.38 2.713L9.28 8.155l.66 1.144c1.278.102 1.449-.97.89-1.94l-.296 1.125zm-4.001 1.672l.85-.859h-1.29c-.634 1.114.173 1.847 1.438 1.847l-.998-.988z" fill="#56bf5d"/>
</svg>
